# xmcd
#
# Track frame offsets:
#	150
#	12845
#	24734
#	45841
#	66459
#	83978
#	98892
#	117531
#	130555
#	145224
# Disc length: 2151 seconds
# Revision: 3
# Processed by: cddbd v1.5PL3 Copyright (c) Steve Scherf et al.
#
# Submitted via: libkcddb 0.10
#
DISCID=8208650a
DTITLE=Jericho - Choices
DYEAR=2000
DGENRE=Country
TTITLE0=Song for You
TTITLE1=I'm Goin' Over
TTITLE2=Yesterday's News
TTITLE3=I Choose the Cross
TTITLE4=Let My Heart Be Broken
TTITLE5=I Believe He's Coming Back
TTITLE6=When I Speak Jesus
TTITLE7=Turning Point
TTITLE8=Whatever It Takes
TTITLE9=(He Makes) No Mistakes
EXTD=
EXTT0=
EXTT1=
EXTT2=
EXTT3=
EXTT4=
EXTT5=
EXTT6=
EXTT7=
EXTT8=
EXTT9=
PLAYORDER=
